HIERARCHY
ROOT Hips
{
 OFFSET 0.000000 0.000000 0.000000
 CHANNELS 6 Xposition Yposition Zposition Yrotation Xrotation Zrotation
 JOINT Chest
 {
  OFFSET 0.000000 9.585900 0.002600
  CHANNELS 3 Yrotation Xrotation Zrotation
  JOINT Chest2
  {
   OFFSET 0.000000 9.601200 -0.005300
   CHANNELS 3 Yrotation Xrotation Zrotation
   JOINT Chest3
   {
    OFFSET 0.000000 9.561800 0.000000
    CHANNELS 3 Yrotation Xrotation Zrotation
    JOINT Chest4
    {
     OFFSET 0.000000 9.552100 0.000000
     CHANNELS 3 Yrotation Xrotation Zrotation
     JOINT Neck
     {
      OFFSET 0.000000 14.453000 0.000000
      CHANNELS 3 Yrotation Xrotation Zrotation
      JOINT Head
      {
       OFFSET 0.000000 8.936500 -0.011300
       CHANNELS 3 Yrotation Xrotation Zrotation
       End Site
       {
        OFFSET 0.000000 17.073600 -0.006000
       }
      }
     }
     JOINT RightCollar
     {
      OFFSET -2.921100 9.558500 0.000000
      CHANNELS 3 Yrotation Xrotation Zrotation
      JOINT RightShoulder
      {
       OFFSET -13.519700 0.000000 0.000000
       CHANNELS 3 Yrotation Xrotation Zrotation
       JOINT RightElbow
       {
        OFFSET 0.000000 -29.696600 0.000000
        CHANNELS 3 Yrotation Xrotation Zrotation
        JOINT RightWrist
        {
         OFFSET 0.000000 -24.004700 0.000000
         CHANNELS 3 Yrotation Xrotation Zrotation
         End Site
         {
          OFFSET 0.000000 -17.728500 0.000000
         }
        }
       }
      }
     }
     JOINT LeftCollar
     {
      OFFSET 2.921100 9.558500 0.000000
      CHANNELS 3 Yrotation Xrotation Zrotation
      JOINT LeftShoulder
      {
       OFFSET 13.519700 0.000000 0.000000
       CHANNELS 3 Yrotation Xrotation Zrotation
       JOINT LeftElbow
       {
        OFFSET 0.000000 -29.696600 0.000000
        CHANNELS 3 Yrotation Xrotation Zrotation
        JOINT LeftWrist
        {
         OFFSET 0.000000 -24.004700 0.000000
         CHANNELS 3 Yrotation Xrotation Zrotation
         End Site
         {
          OFFSET 0.000000 -17.728500 0.000000
         }
        }
       }
      }
     }
    }
   }
  }
 }
 JOINT RightHip
 {
  OFFSET -7.771700 -0.012900 -0.001300
  CHANNELS 3 Yrotation Xrotation Zrotation
  JOINT RightKnee
  {
   OFFSET 0.000000 -40.869800 0.001200
   CHANNELS 3 Yrotation Xrotation Zrotation
   JOINT RightAnkle
   {
    OFFSET 0.000000 -39.717900 0.002100
    CHANNELS 3 Yrotation Xrotation Zrotation
    JOINT RightToe
    {
     OFFSET 0.000000 -4.965400 11.033500
     CHANNELS 3 Yrotation Xrotation Zrotation
     End Site
     {
      OFFSET 0.000000 -1.423100 5.872300
     }
    }
   }
  }
 }
 JOINT LeftHip
 {
  OFFSET 7.771700 -0.012900 -0.001300
  CHANNELS 3 Yrotation Xrotation Zrotation
  JOINT LeftKnee
  {
   OFFSET 0.000000 -40.869800 0.001200
   CHANNELS 3 Yrotation Xrotation Zrotation
   JOINT LeftAnkle
   {
    OFFSET 0.000000 -39.717900 0.002100
    CHANNELS 3 Yrotation Xrotation Zrotation
    JOINT LeftToe
    {
     OFFSET 0.000000 -4.965400 11.033500
     CHANNELS 3 Yrotation Xrotation Zrotation
     End Site
     {
      OFFSET 0.000000 -1.423100 5.872300
     }
    }
   }
  }
 }
}
MOTION
Frames: 12
Frame Time: 0.008333
0.000000 85.388000 0.000000 0.000000 -5.767877 0.000000 0.000000 11.653817 0.000000 0.000000 -5.885947 0.000000 0.000000 -0.000000 0.000000 0.000000 -0.000000 0.000000 0.000000 12.528835 0.000000 0.000000 0.711642 0.000000 0.000000 -0.000000 0.000000 0.000000 0.000000 -90.000000 0.000000 -2.309062 0.000000 0.000000 2.309062 0.000000 0.000000 -0.000000 0.000000 0.000000 -0.000000 90.000000 0.000000 -2.309062 0.000000 0.000000 2.309062 0.000000 0.000000 8.520406 0.000000 0.000000 1.905762 0.000000 -0.000000 -4.658285 0.000000 0.000000 -0.000000 0.000000 0.000000 8.520406 0.000000 0.000000 1.905762 0.000000 -0.000000 -4.658285 0.000000 0.000000 -0.000000 0.000000
-4.238342 57.976507 34.401901 174.251247 -43.627848 -0.660332 2.787050 26.546422 2.360027 0.403597 4.583699 0.205188 0.664700 7.272565 0.335157 2.155706 21.868458 1.341052 1.099782 14.950227 1.172698 1.620596 -8.036103 1.784232 3.776715 3.812798 1.518323 18.242283 -27.012732 -14.717059 38.107124 -65.883625 -17.869999 6.916037 0.588010 -36.978280 -8.605747 0.687873 -2.270160 -10.097340 -21.610570 8.135985 -67.316972 -61.461232 39.644560 -30.960390 4.137668 15.979901 10.309805 -28.833048 -0.059378 -0.893092 69.231481 3.649471 5.205231 3.917897 1.157465 -0.012221 0.117693 -0.005654 -7.286732 -30.652123 -3.070632 26.697419 70.928565 24.410331 -22.606351 0.051430 -2.978998 -0.232319 -0.615264 -0.095588
-4.236964 57.976394 34.405532 174.251691 -43.630014 -0.665532 2.800616 26.547816 2.364685 0.418141 4.586048 0.201135 0.649967 7.272724 0.344381 2.174597 21.877778 1.339117 1.113137 14.916237 1.187247 1.639924 -8.099193 1.806368 3.757703 3.816346 1.520120 18.238666 -27.024413 -14.712078 38.121104 -65.894815 -17.876888 6.924230 0.590953 -36.982050 -8.615850 0.692605 -2.265384 -10.075464 -21.612393 8.126656 -67.394239 -61.463010 39.702699 -30.955970 4.142400 15.976826 10.310623 -28.831673 -0.051721 -0.898572 69.224950 3.642861 5.208733 3.924399 1.163253 -0.016078 0.116538 -0.007066 -7.284929 -30.650031 -3.060955 26.692930 70.925471 24.404917 -22.625161 0.061110 -2.969429 -0.224722 -0.625399 -0.105271
-4.236544 57.976454 34.409144 174.256410 -43.635427 -0.667123 2.809153 26.549781 2.365903 0.414187 4.588630 0.199469 0.651271 7.274754 0.346950 2.189915 21.883649 1.334480 1.127470 14.884762 1.201161 1.705428 -8.214699 1.827448 3.751784 3.833344 1.511558 18.225763 -27.036750 -14.699078 38.139864 -65.916416 -17.895678 6.928446 0.596773 -36.987753 -8.605224 0.711305 -2.275201 -10.080116 -21.622837 8.133066 -67.466157 -61.460730 39.752480 -30.956649 4.149207 15.975162 10.308846 -28.826134 -0.049419 -0.882830 69.220164 3.655405 5.195595 3.927580 1.165103 -0.016575 0.117190 -0.006982 -7.280971 -30.645403 -3.060394 26.691781 70.919687 24.398671 -22.629134 0.079757 -2.955089 -0.239866 -0.647474 -0.113127
-4.235157 57.976122 34.413379 174.251083 -43.638713 -0.666971 2.820881 26.549603 2.365382 0.411277 4.591457 0.204991 0.671100 7.277852 0.337279 2.212744 21.889849 1.334208 1.131944 14.851264 1.227739 1.743988 -8.284213 1.838720 3.730473 3.829554 1.530915 18.219208 -27.032497 -14.698328 38.144581 -65.936782 -17.899804 6.931824 0.602240 -36.992340 -8.625612 0.714734 -2.259094 -10.074604 -21.623838 8.131361 -67.521217 -61.489509 39.820935 -30.973384 4.159416 15.936619 10.313138 -28.824623 -0.036621 -0.918403 69.214905 3.615526 5.190532 3.932528 1.169716 -0.017838 0.117926 -0.006448 -7.271792 -30.640572 -3.054320 26.684271 70.912591 24.388940 -22.630192 0.098099 -2.941912 -0.236193 -0.658934 -0.121282
-4.236259 57.975529 34.417352 174.257161 -43.641739 -0.658583 2.821125 26.548968 2.352359 0.413050 4.592930 0.204858 0.663856 7.280129 0.341085 2.220330 21.892553 1.329411 1.154983 14.824350 1.232619 1.740581 -8.295566 1.850696 3.738215 3.833435 1.529154 18.209666 -27.030107 -14.700253 38.131126 -65.954564 -17.891761 6.936983 0.602612 -36.993052 -8.628291 0.717999 -2.256095 -10.037577 -21.622982 8.108605 -67.594002 -61.492536 39.871380 -30.976458 4.162350 15.919759 10.327254 -28.821879 -0.049221 -0.948223 69.214974 3.588485 5.186846 3.933148 1.173294 -0.017547 0.118522 -0.004375 -7.264802 -30.638201 -3.066258 26.753780 70.890893 24.444857 -22.654692 0.124506 -2.922082 -0.239526 -0.673083 -0.132258
-4.234599 57.976180 34.419896 174.253785 -43.656982 -0.657831 2.828851 26.559197 2.352557 0.414715 4.595076 0.204330 0.666388 7.283157 0.340136 2.219001 21.892838 1.334517 1.202533 14.786804 1.223575 1.755144 -8.331952 1.866714 3.753037 3.838075 1.519647 18.207986 -27.027363 -14.706074 38.099261 -65.967168 -17.868118 6.941674 0.602031 -37.003206 -8.616090 0.729664 -2.269625 -10.036809 -21.634331 8.115792 -67.619664 -61.500099 39.890448 -30.979248 4.165418 15.909715 10.331917 -28.807287 -0.040807 -0.967829 69.210962 3.568397 5.188554 3.936968 1.175419 -0.018168 0.118039 -0.003288 -7.258369 -30.621883 -3.065732 26.765756 70.883729 24.455385 -22.660973 0.145193 -2.905574 -0.238290 -0.687985 -0.141565
-4.232013 57.975792 34.423003 174.257007 -43.664541 -0.665875 2.841944 26.562200 2.367192 0.415361 4.596552 0.203731 0.667661 7.285490 0.339354 2.222280 21.895379 1.332541 1.208995 14.771716 1.227948 1.800380 -8.379525 1.862424 3.747912 3.837001 1.522736 18.233976 -27.003484 -14.741476 38.039516 -65.995554 -17.826733 6.945055 0.601985 -37.020038 -8.616653 0.736823 -2.272195 -10.033281 -21.645719 8.118846 -67.634898 -61.505927 39.895814 -30.982762 4.169115 15.901480 10.329668 -28.801211 -0.031093 -0.978539 69.206438 3.559583 5.192715 3.941819 1.173994 -0.018471 0.117253 -0.001280 -7.256770 -30.614885 -3.057207 26.765614 70.880111 24.456594 -22.675575 0.167748 -2.886434 -0.209372 -0.701531 -0.151383
-4.231316 57.974372 34.426216 174.261623 -43.664270 -0.662055 2.844145 26.559468 2.361922 0.423711 4.595483 0.202259 0.662234 7.288910 0.339885 2.226527 21.896851 1.330162 1.206650 14.765754 1.238722 1.842759 -8.407782 1.851147 3.747924 3.836697 1.527596 18.225315 -27.004787 -14.739352 38.034739 -65.996855 -17.809076 6.944617 0.602670 -37.041238 -8.624732 0.738267 -2.262712 -10.018945 -21.654345 8.111640 -67.644621 -61.508109 39.893961 -30.985719 4.178413 15.897032 10.335179 -28.802984 -0.040934 -0.982995 69.206995 3.558020 5.201480 3.942625 1.170237 -0.019108 0.116547 -0.001057 -7.243483 -30.615402 -3.061725 26.768855 70.870225 24.457492 -22.701031 0.193586 -2.861176 -0.208219 -0.710335 -0.159640
-4.229295 57.972934 34.428774 174.262500 -43.664268 -0.661532 2.857351 26.554108 2.366196 0.420781 4.597549 0.201551 0.674953 7.286789 0.336511 2.220862 21.899983 1.334170 1.220116 14.754419 1.240791 1.862264 -8.413998 1.850857 3.750251 3.839788 1.525474 18.234021 -27.001352 -14.754095 37.988622 -66.007665 -17.769525 6.950476 0.606137 -37.051835 -8.623192 0.742198 -2.264515 -10.025188 -21.660582 8.117980 -67.649872 -61.507316 39.888338 -30.986480 4.187265 15.898976 10.339688 -28.805722 -0.041449 -0.982264 69.207656 3.561446 5.197313 3.944589 1.166015 -0.020501 0.116443 0.001843 -7.232266 -30.613824 -3.060474 26.776091 70.861520 24.466862 -22.729826 0.208962 -2.845084 -0.197620 -0.702308 -0.145456
-4.228419 57.972082 34.429703 174.268198 -43.669710 -0.655078 2.854010 26.558212 2.356457 0.418464 4.598481 0.201873 0.681320 7.284516 0.335586 2.227340 21.901793 1.328068 1.250917 14.744807 1.234213 1.856857 -8.409033 1.867073 3.764095 3.835279 1.525278 18.250757 -26.995962 -14.783770 37.892939 -66.017478 -17.701348 6.956709 0.600921 -37.057177 -8.614565 0.742310 -2.271783 -10.051259 -21.656029 8.138869 -67.656841 -61.509180 39.891864 -30.984723 4.198018 15.899756 10.342338 -28.802003 -0.049734 -0.979560 69.212508 3.563934 5.188196 3.944523 1.163539 -0.017697 0.114412 0.002682 -7.219090 -30.605869 -3.074444 26.773213 70.853015 24.465999 -22.738303 0.220126 -2.833531 -0.192023 -0.697426 -0.137302
-4.226531 57.971780 34.429370 174.269838 -43.679602 -0.649677 2.861083 26.563697 2.355546 0.419136 4.598242 0.201396 0.673487 7.287821 0.335831 2.250210 21.890327 1.315179 1.242054 14.755197 1.252894 1.872993 -8.403313 1.861321 3.753819 3.840667 1.543582 18.247962 -26.991869 -14.787308 37.869071 -66.019090 -17.683558 6.965207 0.591536 -37.058252 -8.627273 0.755444 -2.260541 -10.048373 -21.661233 8.144510 -67.672664 -61.511264 39.915826 -30.981787 4.192818 15.872734 10.344923 -28.793655 -0.053650 -0.964926 69.217454 3.578628 5.179875 3.943693 1.163150 -0.018850 0.113089 -0.000202 -7.209659 -30.593376 -3.080455 26.776066 70.849917 24.460521 -22.728956 0.234503 -2.803191 -0.205719 -0.702146 -0.148573
